<svg xmlns="http://www.w3.org/2000/svg" version="1.1" xmlns:xlink="http://www.w3.org/1999/xlink" xmlns:svgjs="http://svgjs.dev/svgjs" width="1000" height="1000" viewBox="0 0 1000 1000"><rect width="1000" height="1000" fill="#ffffff"></rect><g transform="matrix(0.7,0,0,0.7,150.26831196183588,176.51214574898785)"><svg viewBox="0 0 267 247" data-background-color="#4d7e3e" preserveAspectRatio="xMidYMid meet" height="925" width="1000" xmlns="http://www.w3.org/2000/svg" xmlns:xlink="http://www.w3.org/1999/xlink"><defs></defs><g id="tight-bounds" transform="matrix(1,0,0,1,-0.10234184830025583,-0.09999999999999432)"><svg viewBox="0 0 267.2046836966005 247.2" height="247.2" width="267.2046836966005"><g><svg viewBox="0 0 395.52 365.90879563704254" height="247.2" width="267.2046836966005"><g transform="matrix(1,0,0,1,0,260.9222191471321)"><svg viewBox="0 0 395.52 104.98657648991042" height="104.98657648991042" width="395.52"><g><svg viewBox="0 0 395.52 104.98657648991042" height="104.98657648991042" width="395.52"><g><rect width="75.54432" height="6.325076788603164" y="92.67842198945463" fill="#ffffff" data-fill-palette-color="tertiary"></rect><rect width="75.54432" height="6.325076788603164" y="92.67842198945463" x="319.97568" fill="#ffffff" data-fill-palette-color="tertiary"></rect></g><g><svg viewBox="0 0 395.52 70.1375516372796" height="70.1375516372796" width="395.52"><g transform="matrix(1,0,0,1,0,0)"><svg width="395.52" viewBox="2.5 -35 198.49000549316406 35.20000076293945" height="70.1375516372796" data-palette-color="#ffffff"><path d="M2.5-34.4L2.5-34.4 2.6-35 13-35Q19.15-35 22.13-32.9 25.1-30.8 25.1-24.98 25.1-19.15 22.03-16.38 18.95-13.6 13-13.6L13-13.6 9.15-13.6 9.15-0.95 12.6-0.75Q12.6-0.7 12.55 0L12.55 0 2.55 0.05Q2.55-0.4 2.6-0.65L2.6-0.65 5.2-1Q5.55-1.05 5.75-1.45L5.75-1.45 5.75-33.45Q5.55-33.9 5.2-33.95L5.2-33.95 2.55-34.25Q2.5-34.3 2.5-34.4ZM12.75-34.25L12.75-34.25 9.15-34.25 9.15-14.35 12.75-14.35Q17.25-14.35 19.48-16.75 21.7-19.15 21.7-24.78 21.7-30.4 19.5-32.33 17.3-34.25 12.75-34.25ZM30.7-33.95L28.05-34.25 28.1-35 49.5-35 49.45-34.85 50.1-27.8 49.1-27.4 48.3-34 34.7-34 34.7-17.85 46.65-17.85Q46.9-17.8 47.1-17.98 47.3-18.15 47.3-18.45L47.3-18.45 47.5-21.9 48.3-22 48.3-13.45Q48.25-13.45 47.55-13.4L47.55-13.4 47.35-16.85 34.7-16.85 34.7-1 49.65-1 50.6-9 51.55-8.75 50.8 0 38.1 0 28.05 0.05 28.1-0.65 30.7-1Q31.2-1.05 31.3-1.65L31.3-1.65 31.3-33.3Q31.2-33.9 30.7-33.95L30.7-33.95ZM54.8-34.4L54.8-34.4 54.9-35 65.3-35Q71.45-35 74.42-32.9 77.4-30.8 77.4-24.98 77.4-19.15 74.32-16.38 71.25-13.6 65.3-13.6L65.3-13.6 61.45-13.6 61.45-0.95 64.9-0.75Q64.9-0.7 64.84 0L64.84 0 54.84 0.05Q54.84-0.4 54.9-0.65L54.9-0.65 57.5-1Q57.84-1.05 58.05-1.45L58.05-1.45 58.05-33.45Q57.84-33.9 57.5-33.95L57.5-33.95 54.84-34.25Q54.8-34.3 54.8-34.4ZM65.05-34.25L65.05-34.25 61.45-34.25 61.45-14.35 65.05-14.35Q69.55-14.35 71.77-16.75 74-19.15 74-24.78 74-30.4 71.8-32.33 69.59-34.25 65.05-34.25ZM82.99-33.95L80.34-34.25 80.39-35 101.79-35 101.74-34.85 102.39-27.8 101.39-27.4 100.59-34 86.99-34 86.99-17.85 98.94-17.85Q99.19-17.8 99.39-17.98 99.59-18.15 99.59-18.45L99.59-18.45 99.79-21.9 100.59-22 100.59-13.45Q100.54-13.45 99.84-13.4L99.84-13.4 99.64-16.85 86.99-16.85 86.99-0.95 90.44-0.75Q90.44-0.7 90.39 0L90.39 0 80.34 0.05 80.39-0.65 82.99-1Q83.49-1.05 83.59-1.65L83.59-1.65 83.59-33.3Q83.49-33.9 82.99-33.95L82.99-33.95ZM105.64-34.95L115.64-35Q115.64-34.95 115.69-34.25L115.69-34.25 112.29-33.95 112.29-15.05Q112.29-6.35 115.34-3.5L115.34-3.5Q116.79-2.1 118.29-1.58 119.79-1.05 121.82-1.05 123.84-1.05 125.49-1.6 127.14-2.15 128.69-3.6L128.69-3.6Q131.99-6.6 131.99-15.05L131.99-15.05 131.99-33.15Q131.89-33.8 131.39-33.85L131.39-33.85 127.79-34.2Q127.74-34.5 127.74-34.95L127.74-34.95 137.24-35Q137.24-34.95 137.29-34.25L137.29-34.25 133.14-33.8 133.14-15Q133.14 0.2 121.79 0.2L121.79 0.2Q119.04 0.2 116.97-0.38 114.89-0.95 112.94-2.5L112.94-2.5Q108.89-5.65 108.89-15L108.89-15 108.89-33.3Q108.69-33.9 108.29-33.95L108.29-33.95 105.69-34.2Q105.64-34.5 105.64-34.95L105.64-34.95ZM142.44-33.95L139.79-34.25 139.84-35 146.69-35 166.14-1.4 165.89-33.25Q165.69-33.75 165.34-33.8L165.34-33.8 160.74-34.2Q160.69-34.5 160.69-34.95L160.69-34.95 170.19-35Q170.19-34.95 170.24-34.25L170.24-34.25 167.04-33.9 167.04 0 163.39 0 143.94-33.6 144.19-1.05 149.89-0.75Q149.89-0.7 149.84 0L149.84 0 139.79 0.05 139.84-0.65 142.44-1Q142.94-1.05 143.04-1.65L143.04-1.65 143.04-33.3Q142.94-33.9 142.44-33.95L142.44-33.95ZM176.49-33.95L173.84-34.25 173.89-35 186.09-35Q192.84-35 196.91-31.08 200.99-27.15 200.99-18.3L200.99-18.3Q200.99-9.55 198.14-5.2L198.14-5.2Q195.64-1.4 190.34-0.4L190.34-0.4Q187.99 0 184.84 0L184.84 0 183.89 0 173.84 0.05 173.89-0.65 176.49-1Q176.99-1.05 177.09-1.65L177.09-1.65 177.09-33.25Q176.99-33.9 176.49-33.95L176.49-33.95ZM185.84-34.25L185.84-34.25 180.49-34.25 180.49-0.75 184.59-0.75Q186.99-0.75 188.66-1.03 190.34-1.3 192.16-2.33 193.99-3.35 195.04-5.15L195.04-5.15Q197.59-9.4 197.59-18.05L197.59-18.05Q197.59-27.05 194.04-30.8L194.04-30.8Q190.79-34.25 185.84-34.25Z" opacity="1" transform="matrix(1,0,0,1,0,0)" fill="#000000" class="undefined-text-0" data-fill-palette-color="primary" id="text-0"></path></svg></g></svg></g><g transform="matrix(1,0,0,1,75.54432,86.69534427760202)"><svg viewBox="0 0 244.43135999999998 18.291232212308394" height="18.291232212308394" width="244.43135999999998"><g transform="matrix(1,0,0,1,8,0)"><svg width="228.43135999999998" viewBox="3.299999952316284 -35 437.05999755859375 35" height="18.291232212308394" data-palette-color="#ffffff"><path d="M3.3 0L3.3-35 22-35 22-30.85 7.85-30.85 7.85-20.4 19.05-20.4 19.05-16.2 7.85-16.2 7.85-4.15 22.4-4.15 22.4 0 3.3 0ZM46.85-35L51.7-35 40.6 0 35.35 0 24.25-35 29.15-35 38-5.85 46.85-35ZM55.45 0L55.45-35 74.15-35 74.15-30.85 60-30.85 60-20.4 71.2-20.4 71.2-16.2 60-16.2 60-4.15 74.55-4.15 74.55 0 55.45 0ZM79.64 0L79.64-35 88.64-35Q94.14-35 97.22-32.27 100.29-29.55 100.29-24.3L100.29-24.3Q100.29-21.3 98.87-18.88 97.44-16.45 94.89-15.05L94.89-15.05 101.89 0 96.49 0 90.24-13.7Q89.44-13.6 88.59-13.6L88.59-13.6 84.19-13.6 84.19 0 79.64 0ZM84.19-17.8L88.24-17.8Q92.04-17.8 93.79-19.45 95.54-21.1 95.54-24.3L95.54-24.3Q95.54-27.55 93.79-29.2 92.04-30.85 88.24-30.85L88.24-30.85 84.19-30.85 84.19-17.8ZM122.54-35L127.59-35 117.29-15.15 117.29 0 112.74 0 112.74-15.15 102.34-35 107.39-35 114.99-19.95 122.54-35ZM141.63 0L141.63-35 150.63-35Q156.13-35 159.21-32.1 162.28-29.2 162.28-23.65L162.28-23.65Q162.28-18.1 159.21-15.18 156.13-12.25 150.63-12.25L150.63-12.25 146.24-12.25 146.24 0 141.63 0ZM146.24-16.45L150.24-16.45Q157.53-16.45 157.53-23.65L157.53-23.65Q157.53-30.85 150.24-30.85L150.24-30.85 146.24-30.85 146.24-16.45ZM166.48 0L166.48-35 185.18-35 185.18-30.85 171.03-30.85 171.03-20.4 182.23-20.4 182.23-16.2 171.03-16.2 171.03-4.15 185.58-4.15 185.58 0 166.48 0ZM190.33 0L190.33-35 195.48-35 209.33-9.4 209.33-35 213.88-35 213.88 0 209.63 0 194.88-27.05 194.88 0 190.33 0ZM220.48 0L220.48-35 225.63-35 239.48-9.4 239.48-35 244.03-35 244.03 0 239.78 0 225.03-27.05 225.03 0 220.48 0ZM267.48-35L272.53-35 262.23-15.15 262.23 0 257.68 0 257.68-15.15 247.28-35 252.33-35 259.93-19.95 267.48-35ZM316.52 0L311.62 0 309.32-25.3 300.87-7.25 292.42-25.3 290.07 0 285.22 0 289.02-35 292.87-35 300.87-16.95 308.87-35 312.72-35 316.52 0ZM340.07 0L337.27-9.5 326.42-9.5 323.62 0 318.72 0 329.47-35 334.17-35 344.92 0 340.07 0ZM327.67-13.75L336.02-13.75 331.82-27.95 327.67-13.75ZM352.62 0L352.62-30.85 343.91-30.85 343.91-35 365.91-35 365.91-30.85 357.21-30.85 357.21 0 352.62 0ZM376.41 0L376.41-30.85 367.71-30.85 367.71-35 389.71-35 389.71-30.85 381.01-30.85 381.01 0 376.41 0ZM393.91 0L393.91-35 412.61-35 412.61-30.85 398.46-30.85 398.46-20.4 409.66-20.4 409.66-16.2 398.46-16.2 398.46-4.15 413.01-4.15 413.01 0 393.91 0ZM418.11 0L418.11-35 427.11-35Q432.61-35 435.68-32.27 438.76-29.55 438.76-24.3L438.76-24.3Q438.76-21.3 437.33-18.88 435.91-16.45 433.36-15.05L433.36-15.05 440.36 0 434.96 0 428.71-13.7Q427.91-13.6 427.06-13.6L427.06-13.6 422.66-13.6 422.66 0 418.11 0ZM422.66-17.8L426.71-17.8Q430.51-17.8 432.26-19.45 434.01-21.1 434.01-24.3L434.01-24.3Q434.01-27.55 432.26-29.2 430.51-30.85 426.71-30.85L426.71-30.85 422.66-30.85 422.66-17.8Z" opacity="1" transform="matrix(1,0,0,1,0,0)" fill="#000000" class="undefined-text-1" data-fill-palette-color="secondary" id="text-1"></path></svg></g></svg></g></svg></g></svg></g><g transform="matrix(1,0,0,1,83.85668306675635,0)"><svg viewBox="0 0 227.8066338664873 227.8066338664873" height="227.8066338664873" width="227.8066338664873"><g><svg></svg></g><g id="icon-0"><svg viewBox="0 0 227.8066338664873 227.8066338664873" height="227.8066338664873" width="227.8066338664873"><g><path d="M0 113.903c0-62.907 50.996-113.903 113.903-113.903 62.907 0 113.903 50.996 113.904 113.903 0 62.907-50.996 113.903-113.904 113.904-62.907 0-113.903-50.996-113.903-113.904zM113.903 221.482c59.414 0 107.578-48.164 107.579-107.579 0-59.414-48.164-107.578-107.579-107.578-59.414 0-107.578 48.164-107.578 107.578 0 59.414 48.164 107.578 107.578 107.579z" data-fill-palette-color="tertiary" fill="#ffffff" stroke="transparent"></path></g><g transform="matrix(1,0,0,1,47.55160048905097,80.64544767542174)"><svg viewBox="0 0 132.70343288838535 66.51573851564382" height="66.51573851564382" width="132.70343288838535"><g><svg xmlns="http://www.w3.org/2000/svg" xmlns:xlink="http://www.w3.org/1999/xlink" xml:space="preserve" style="shape-rendering:geometricPrecision;text-rendering:geometricPrecision;image-rendering:optimizeQuality;" viewBox="0.0000020265579223632812 0.0000027120113372802734 14.727499008178711 7.38195276260376" x="0" y="0" fill-rule="evenodd" clip-rule="evenodd" width="132.70343288838535" height="66.51573851564382" class="icon-x-0" data-fill-palette-color="accent" id="x-0"><g fill="#ffffff" data-fill-palette-color="accent"><path class="" d="M1.757 3.091c-0.313 0.444-0.296 1.331-0.417 1.95-0.153 0.784-0.711 1.203-1.34 1.534 0.188-0.771 0.348-1.542 0.412-2.313 0.078-0.953-0.06-0.891 0.767-1.575 1.159-0.961 3.04-1.741 5.848-2.29 2.456-0.406 5.049-0.453 7.701-0.351-0.89 1.809-3.733 1.961-7.203 1.581-1.811 0.02-3.495-0.488-5.768 1.464z m8.33 2.781c-3.895 2.038-7.803-2.284-9.165 0.688 2.104-1.831 5.079 3.183 9.165-0.688z m2.489-2.547c-4.49 2.72-9.502-0.792-10.907 1.859 3.412-1.235 7.765 2.753 10.907-1.859z m0.834-1.478c-3.944 1.761-10.043-1.402-11.565 2.239 3.106-1.808 8.446 1.438 11.565-2.239z" fill="#000000" data-fill-palette-color="accent"></path></g></svg></g></svg></g></svg></g></svg></g><g></g></svg></g></svg><rect width="267.2046836966005" height="247.2" fill="none" stroke="none" visibility="hidden"></rect></g></svg></g></svg>